<svg width="181" height="50" viewBox="0 0 181 50" xmlns="http://www.w3.org/2000/svg"><g fill="none" fill-rule="evenodd"><path d="M91.55 41.855c-.127 1.701-.354 2.595-.666 3.233h3.573v-5.841h-2.708l-.199 2.608zm-1.786 3.233c.397-.397.695-1.191.85-3.29l.27-3.374h4.593v6.664h.894v2.537c-.086.028-.241.071-.44.071-.227 0-.397-.043-.51-.07V45.88h-5.303v1.744c-.084.028-.255.071-.467.071-.227 0-.397-.043-.468-.07v-2.538h.581zm-6.98.723s-.17.07-.51.07c-.34 0-.51-.07-.51-.07v-7.316s.17-.07.51-.07c.34 0 .51.07.51.07v3.119h3.63v-3.119s.184-.07.51-.07c.34 0 .51.07.51.07v7.316s-.17.07-.524.07c-.326 0-.497-.07-.497-.07v-3.346h-3.63v3.346zm-6.158-6.72c-1.219 0-1.984.694-1.984 3.062 0 2.367.765 3.062 1.984 3.062 1.22 0 1.985-.695 1.985-3.062 0-2.368-.765-3.062-1.985-3.062zm0-.808c1.9 0 3.034 1.063 3.034 3.87 0 2.807-1.134 3.87-3.034 3.87s-3.034-1.063-3.034-3.87c0-2.807 1.135-3.87 3.034-3.87zm-7.625.822c-.922 0-1.432.326-1.446.312v5.401s.595.369 1.446.369c1.262 0 1.744-.922 1.744-3.034 0-2.112-.482-3.048-1.744-3.048zm-3.828 0c-1.262 0-1.743.936-1.743 3.048s.481 3.034 1.743 3.034c.85 0 1.432-.369 1.432-.369v-5.401c-.014.014-.51-.312-1.432-.312zm1.914-3.856c.34 0 .51.07.51.07v3.261s.638-.312 1.56-.297c1.9.014 2.608 1.346 2.608 3.87 0 2.523-.709 3.87-2.608 3.87-.964 0-1.56-.34-1.56-.34v3.672s-.17.07-.51.07c-.369 0-.51-.07-.51-.07v-3.672s-.61.34-1.574.34c-1.885 0-2.608-1.347-2.608-3.87 0-2.524.723-3.87 2.608-3.87a4.14 4.14 0 011.574.297v-3.26s.141-.071.51-.071zm111.51-15.938c.24.085.396.27.467.51 0 0-.666.851-2.013.851-1.332 0-2.013-.85-2.013-.85a.765.765 0 01.468-.511s.595.525 1.545.525 1.545-.525 1.545-.525zm.864 2.694c.355 0 .539.07.539.07v7.316s-.184.07-.51.07c-.312 0-.525-.07-.525-.07v-4.04c0-1.177.042-1.943.057-1.971h-.043s-.255.567-.652 1.19l-3.162 4.821s-.198.07-.552.07c-.34 0-.525-.07-.525-.07v-7.315s.184-.071.51-.071c.34 0 .51.07.51.07v4.098c0 .978-.042 1.914-.056 1.914h.029s.24-.525.638-1.135l3.204-4.876s.184-.071.538-.071zm-8.276 0c.24 0 .411.042.51.07v7.316c-.099.028-.27.07-.51.07-.227 0-.397-.042-.51-.07v-7.315c.113-.029.283-.071.51-.071zm-6.366 6.677h1.985c.893 0 1.347-.51 1.347-1.389 0-.865-.454-1.404-1.347-1.404h-1.985v2.793zm-.51-6.677c.227 0 .411.042.51.07v3.035h2.17c1.389 0 2.211.878 2.211 2.183 0 1.29-.822 2.169-2.211 2.169h-3.19v-7.386c.113-.029.297-.071.51-.071zm-7.546 7.386s-.17.07-.51.07c-.34 0-.51-.07-.51-.07v-7.315s.17-.071.51-.071c.34 0 .51.07.51.07v3.12h3.63v-3.12s.184-.07.51-.07c.34 0 .51.07.51.07v7.316s-.17.07-.524.07c-.326 0-.496-.07-.496-.07v-3.346h-3.63v3.346zm-8.056 0s-.17.07-.51.07c-.34 0-.51-.07-.51-.07v-7.315s.17-.071.51-.071c.34 0 .51.07.51.07v3.12h3.63v-3.12s.184-.07.51-.07c.34 0 .51.07.51.07v7.316s-.17.07-.524.07c-.326 0-.496-.07-.496-.07v-3.346h-3.63v3.346zm-6.157-6.72c-1.22 0-1.985.695-1.985 3.062 0 2.368.766 3.063 1.985 3.063 1.22 0 1.985-.695 1.985-3.063 0-2.367-.766-3.062-1.985-3.062zm0-.808c1.9 0 3.034 1.063 3.034 3.87 0 2.807-1.134 3.87-3.034 3.87s-3.034-1.063-3.034-3.87c0-2.807 1.134-3.87 3.034-3.87zm-5.676.142c.355 0 .539.07.539.07v7.316s-.184.07-.51.07c-.312 0-.525-.07-.525-.07v-4.04c0-1.177.042-1.957.057-1.971h-.043c.043.014-.468.907-.95 1.687l-2.864 4.324s-.198.07-.552.07c-.34 0-.525-.07-.525-.07v-7.315s.184-.071.51-.071c.34 0 .51.07.51.07v4.098c0 .964-.042 1.9-.056 1.914h.029s.24-.525.638-1.135l3.204-4.876s.184-.071.538-.071zm-8.63 0c.326 0 .51.07.51.07v6.522h.894v2.609c-.085.028-.241.07-.454.07-.227 0-.397-.042-.482-.07v-1.744h-5.486v-7.386s.17-.071.496-.071c.369 0 .524.07.524.07v6.522h3.488v-6.521s.184-.071.51-.071zm-10.108 3.856c-1.177 0-1.758.468-1.758 1.474 0 1.007.567 1.447 1.46 1.447 1.247 0 2.013-.964 2.013-2.24v-.568c-.326-.028-1.035-.113-1.715-.113zm.17-3.998c2.027 0 2.566.978 2.566 2.864v4.664s-.128.07-.411.07c-.255 0-.411-.07-.411-.07l-.156-1.063c-.397.822-1.248 1.276-2.382 1.276-1.318 0-2.198-.794-2.198-2.269 0-1.446.894-2.211 2.68-2.211.794 0 1.503.07 1.857.113v-.794c0-1.177-.496-1.701-1.673-1.701-1.063 0-1.984.354-1.984.354a.688.688 0 01-.242-.311c-.085-.213-.07-.397-.07-.44 0 0 1.077-.482 2.424-.482zm-5.44.142c.311 0 .552.07.552.07v7.316s-.156.07-.482.07c-.34 0-.51-.07-.51-.07v-4.324c0-.964.07-1.545.085-1.687h-.043c-.057.127-.198.496-.538 1.106l-1.914 3.26s-.1.057-.27.057a.586.586 0 01-.27-.056l-1.814-3.19c-.354-.638-.51-1.035-.567-1.177h-.042c.028.142.099.737.099 1.701v4.31s-.184.07-.482.07c-.284 0-.468-.07-.468-.07v-7.315s.227-.071.567-.071c.355 0 .553.07.553.07l1.985 3.545a12 12 0 01.44.907h.042c.099-.227.227-.539.44-.907l2.055-3.544s.227-.071.581-.071zm-11.847.723c-1.192 0-1.83 1.02-1.844 2.07v1.828c0 1.05.638 2.113 1.844 2.113 1.389 0 1.999-.766 1.999-3.006 0-2.24-.61-3.005-2-3.005zm.34-.865c1.659 0 2.722.978 2.722 3.87 0 2.892-1.063 3.87-2.722 3.87-1.092 0-1.772-.41-2.184-1.105v4.281s-.156.071-.51.071-.51-.07-.51-.07V22.075s.156-.071.51-.071.51.07.51.07v.894c.412-.695 1.092-1.106 2.184-1.106zm-8.324.808c-1.22 0-1.985.695-1.985 3.062 0 2.368.766 3.063 1.985 3.063 1.22 0 1.985-.695 1.985-3.063 0-2.367-.766-3.062-1.985-3.062zm0-.808c1.9 0 3.034 1.063 3.034 3.87 0 2.807-1.134 3.87-3.034 3.87S90 28.54 90 25.734c0-2.807 1.134-3.87 3.034-3.87zm-7.626.822c-.921 0-1.432.326-1.446.312V28.4s.596.368 1.446.368c1.262 0 1.744-.921 1.744-3.034 0-2.112-.482-3.048-1.744-3.048zm-3.828 0c-1.261 0-1.743.936-1.743 3.048 0 2.113.482 3.034 1.743 3.034.851 0 1.432-.368 1.432-.368v-5.402c-.014.014-.51-.312-1.432-.312zm1.914-3.856c.34 0 .51.071.51.071v3.26s.639-.311 1.56-.297c1.9.014 2.608 1.347 2.608 3.87 0 2.524-.708 3.87-2.608 3.87-.964 0-1.56-.34-1.56-.34v3.672s-.17.071-.51.071c-.368 0-.51-.07-.51-.07v-3.673s-.61.34-1.574.34c-1.885 0-2.608-1.346-2.608-3.87 0-2.523.723-3.87 2.608-3.87.922 0 1.574.298 1.574.298V18.9s.142-.07.51-.07zM72.024 29.391s-.17.07-.51.07c-.34 0-.51-.07-.51-.07v-7.315s.17-.071.51-.071c.34 0 .51.07.51.07v3.12h3.63v-3.12s.184-.07.51-.07c.34 0 .51.07.51.07v7.316s-.17.07-.524.07c-.326 0-.497-.07-.497-.07v-3.346h-3.629v3.346zm-3.945-7.386c.355 0 .54.07.54.07v7.316s-.185.07-.511.07c-.312 0-.525-.07-.525-.07v-4.04c0-1.177.043-1.957.057-1.971h-.043c.043.014-.467.907-.95 1.687l-2.863 4.324s-.199.07-.553.07c-.34 0-.525-.07-.525-.07v-7.315s.185-.071.51-.071c.341 0 .511.07.511.07v4.098c0 .964-.042 1.9-.057 1.914h.029s.241-.525.638-1.135l3.204-4.876s.184-.071.538-.071zm83.4-19.114c.24.086.397.27.467.51 0 0-.666.851-2.013.851-1.332 0-2.013-.85-2.013-.85a.765.765 0 01.468-.51s.596.524 1.545.524c.95 0 1.546-.525 1.546-.525zm.864 2.694c.355 0 .54.071.54.071v7.315s-.185.071-.511.071c-.312 0-.525-.07-.525-.07v-4.04c0-1.178.043-1.943.057-1.972h-.043s-.255.567-.652 1.191l-3.161 4.82s-.199.071-.553.071c-.34 0-.525-.07-.525-.07V5.655s.185-.07.51-.07c.341 0 .511.07.511.07v4.097c0 .978-.042 1.914-.057 1.914h.029s.24-.524.638-1.134l3.204-4.877s.184-.07.538-.07zm-8.297 0c.355 0 .54.071.54.071v7.315s-.185.071-.511.071c-.312 0-.525-.07-.525-.07v-4.04c0-1.178.043-1.958.057-1.972h-.042c.042.014-.468.908-.95 1.687l-2.864 4.324s-.199.071-.553.071c-.34 0-.525-.07-.525-.07V5.655s.185-.07.51-.07c.341 0 .511.07.511.07v4.097c0 .964-.042 1.9-.057 1.914h.029s.241-.524.638-1.134l3.204-4.877s.184-.07.538-.07zm-8.455.071s.213-.07.553-.07c.312 0 .51.07.51.07l-2.296 3.417 2.622 3.884s-.198.085-.595.085c-.369 0-.567-.085-.567-.085l-2.325-3.402h-1.177v3.416s-.184.071-.496.071c-.34 0-.525-.07-.525-.07V5.655s.184-.07.525-.07c.312 0 .496.07.496.07v3.09h1.191l2.084-3.09zm-10.047 3.658c0 2.027.694 2.963 2.226 2.963.822 0 1.375-.27 1.375-.27.198.156.312.454.326.752 0 0-.653.425-1.943.425-1.984 0-3.048-1.347-3.048-3.87 0-2.524 1.064-3.87 3.048-3.87 1.234 0 1.787.34 1.787.34 0 .298-.1.58-.312.765 0 0-.496-.24-1.29-.24-1.517 0-2.17.991-2.17 3.005zm-7.265-.298c-.128 1.701-.354 2.594-.666 3.233h3.572V6.408h-2.708l-.198 2.608zm-1.786 3.233c.397-.397.694-1.192.85-3.29l.27-3.374h4.593v6.664h.893v2.537c-.085.028-.24.071-.44.071-.226 0-.396-.043-.51-.07v-1.745h-5.302v1.744c-.085.028-.255.071-.468.071-.227 0-.397-.043-.468-.07v-2.538h.582zm-4.888-5.998c-1.22 0-1.984.695-1.984 3.063 0 2.367.765 3.062 1.984 3.062 1.22 0 1.985-.695 1.985-3.062 0-2.368-.766-3.063-1.985-3.063zm0-.807c1.9 0 3.034 1.063 3.034 3.87 0 2.807-1.134 3.87-3.034 3.87s-3.034-1.063-3.034-3.87c0-2.807 1.135-3.87 3.034-3.87zm-7.9.864c-1.192 0-1.83 1.021-1.844 2.07v1.829c0 1.049.638 2.112 1.843 2.112 1.39 0 2-.765 2-3.005 0-2.24-.61-3.006-2-3.006zm.34-.864c1.658 0 2.721.978 2.721 3.87 0 2.892-1.063 3.87-2.722 3.87-1.091 0-1.772-.411-2.183-1.106v4.282s-.156.07-.51.07c-.355 0-.51-.07-.51-.07V5.656s.155-.07.51-.07c.354 0 .51.07.51.07v.893c.411-.694 1.092-1.105 2.183-1.105zm-8.325.807c-1.219 0-1.984.695-1.984 3.063 0 2.367.765 3.062 1.984 3.062 1.22 0 1.985-.695 1.985-3.062 0-2.368-.766-3.063-1.985-3.063zm0-.807c1.9 0 3.034 1.063 3.034 3.87 0 2.807-1.134 3.87-3.034 3.87s-3.034-1.063-3.034-3.87c0-2.807 1.135-3.87 3.034-3.87zm-4.376.141s.085.17.085.44c0 .255-.085.425-.085.425h-3.133v6.521s-.156.071-.51.071c-.355 0-.511-.07-.511-.07V5.584h4.154zm-12.351 7.542c-.284 0-.525-.085-.525-.085s-.07-.127-.07-.354c0-.213.07-.383.07-.383s.199.043.425.014c.554-.042.979-.907 1.177-3.445l.255-3.289h4.48v7.386s-.212.071-.496.071c-.34 0-.525-.07-.525-.07V6.407h-2.58l-.198 2.523c-.326 3.686-1.064 4.196-2.013 4.196zm-4.6-6.847c-1.134 0-1.9.751-1.984 2.594h3.586c.014-.07.057-.368.057-.808 0-.964-.44-1.786-1.659-1.786zm-1.984 3.36c.099 1.942.822 2.637 2.197 2.637 1.077 0 1.758-.468 1.758-.468.198.156.326.454.34.752 0 0-.78.623-2.296.623-2.042 0-3.063-1.347-3.063-3.913 0-2.68 1.233-3.827 3.048-3.827 1.716 0 2.694 1.035 2.694 2.75 0 .879-.156 1.446-.156 1.446h-4.522zm-8.427 2.566h2.51c1.332 0 2.027-.837 2.027-2.098 0-1.276-.695-2.084-2.027-2.084h-2.51v4.182zm4.58-9.371s.085.17.085.468c0 .27-.085.453-.085.453h-4.58v3.431h2.694c1.786 0 2.935 1.148 2.935 2.907 0 1.772-1.149 2.948-2.935 2.948h-3.743V2.835h5.629z" fill="#FEFEFE"/><path d="M44.36 3.034a1.355 1.355 0 00-1.776.724L27.298 40.052a1.356 1.356 0 002.5 1.053L45.084 4.81a1.356 1.356 0 00-.724-1.777zM24.733 34.845a1.357 1.357 0 01-1.919 1.919l-11.63-11.63a1.357 1.357 0 01.422-2.206l5.189-2.237a1.357 1.357 0 011.073 2.491l-3.353 1.446 10.218 10.217z" fill="#57B6B2"/><path d="M3.742 22.551l17.522-7.375a1.356 1.356 0 10-1.052-2.5L.83 20.833a1.357 1.357 0 00-.433 2.21l11.197 11.196-9.676 9.676a1.357 1.357 0 001.918 1.919l10.636-10.635c.53-.53.53-1.39 0-1.919L3.742 22.551zM51.776.944A1.355 1.355 0 0050 .22l-6.692 2.814a1.357 1.357 0 001.052 2.5l6.692-2.814a1.357 1.357 0 00.724-1.776zM22.814 34.845l-4.977 4.978a1.357 1.357 0 001.918 1.918l4.978-4.977a1.357 1.357 0 00-1.919-1.919zm13.064 4.914l-2.2 5.226a1.358 1.358 0 01-2.21.433l-3.88-3.88a1.356 1.356 0 111.92-1.918l2.452 2.453 1.418-3.367a1.356 1.356 0 112.5 1.053z" fill="#48C1E2"/><path d="M35.587 38.273L18.29 20.978a1.357 1.357 0 00-1.919 1.918l17.296 17.296a1.353 1.353 0 001.919 0c.53-.53.53-1.39 0-1.919M24.463 18.938a1.357 1.357 0 01.74-1.77l8.384-3.438a1.356 1.356 0 011.766 1.779l-4.23 10.102a1.357 1.357 0 01-2.503-1.048l2.965-7.08-5.353 2.195a1.357 1.357 0 01-1.77-.74" fill="#D41B68"/><path d="M25.193 17.172l-8.386 3.514c-.167.07-.312.17-.433.291h-.002l-.004.006c-.02.02-.037.04-.055.06l-.037.042-.024.033a1.348 1.348 0 00-.249.546l-.002.009-.013.086-.006.045-.003.058c-.002.024-.004.05-.004.074l.002.036a1.324 1.324 0 00.287.8 1.305 1.305 0 00.104.12l.004.004.651.65.845-.364h.001l8.373-3.508a1.356 1.356 0 10-1.049-2.502zM51.053.22a1.356 1.356 0 00-1.777.723L33.378 38.706l-.354.84.63.632.005.004.01.01.023.021c.024.023.048.045.073.066l.043.032c.02.016.041.032.063.047l.066.04c.016.01.031.02.047.028.03.016.06.03.091.044.01.004.017.009.026.012l.005.002c.03.013.062.024.094.034.012.004.024.01.036.013.022.007.046.012.069.017.02.005.042.012.063.016l.01.001a1.35 1.35 0 001.5-.806L51.776 1.996A1.356 1.356 0 0051.052.22zM30.281 32.968l2.07 2.071-1.136 2.7-2.072-2.071 1.138-2.7z" fill="#672F65"/><path d="M45.186 4.2c0-.015 0-.03-.002-.045-.003-.031-.008-.062-.013-.093l-.006-.038a1.338 1.338 0 00-.032-.13l-.008-.021a1.35 1.35 0 00-.038-.106l-.002-.005-.017-.037c-.012-.026-.024-.053-.038-.079-.01-.019-.022-.037-.033-.056-.011-.019-.022-.038-.035-.057-.013-.02-.028-.04-.042-.059-.012-.016-.023-.032-.036-.047-.015-.02-.032-.037-.049-.055l-.04-.044-.053-.049-.045-.04c-.019-.016-.038-.03-.057-.044l-.05-.036c-.02-.014-.043-.027-.065-.04-.016-.01-.032-.02-.048-.028-.026-.014-.053-.027-.08-.039l-.037-.017-.005-.002a1.445 1.445 0 00-.09-.033l-.038-.014-.023-.005a1.356 1.356 0 00-.232-.046h-.001a1.3 1.3 0 00-.12-.006l-.012-.001c-.041 0-.082.002-.122.005h-.01a1.363 1.363 0 00-.385.095h-.001v.001l-.01.004-23.096 9.641a1.356 1.356 0 001.046 2.503l23.095-9.64a.03.03 0 01.004-.002l.51-.215.214-.51.002-.005c.01-.024.018-.05.027-.074.035-.1.058-.2.07-.301V4.42c.004-.033.005-.067.006-.1l.001-.033c0-.03-.002-.059-.004-.089M29.511 39.623l.641.642-.345.818-.007.016-.002.006a1.351 1.351 0 01-1.25.83c-.347 0-.694-.133-.96-.397l-4.774-4.774-.959-.96.96-.959c.53-.53 1.388-.53 1.918 0l4.774 4.774.004.004" fill="#FEFEFE"/></g></svg>